<svg width="25" height="25" viewBox="0 0 25 25" fill="none" xmlns="http://www.w3.org/2000/svg">
<path d="M13.25 2.11462C11.7599 2.00615 10.2638 2.2198 8.86362 2.74104C7.4634 3.26229 6.19183 4.07891 5.13535 5.13538C4.07887 6.19186 3.26225 7.46343 2.74101 8.86365C2.21977 10.2639 2.00612 11.7599 2.11459 13.25C2.48959 18.7605 7.30209 22.9167 12.8229 22.9167H16.6667C17.2396 22.9167 17.7083 22.448 17.7083 21.875C17.7083 21.3021 17.2396 20.8334 16.6667 20.8334H12.8438C8.95834 20.8334 5.39584 18.3125 4.42709 14.5521C2.87501 8.51046 8.50001 2.87504 14.5417 4.43754C18.3125 5.39587 20.8333 8.95837 20.8333 12.8438V13.9896C20.8333 14.8125 20.0938 15.625 19.2708 15.625C18.4479 15.625 17.7083 14.8125 17.7083 13.9896V12.6875C17.7083 10.073 15.8542 7.71879 13.2708 7.35421C12.4489 7.23199 11.6097 7.30789 10.823 7.57558C10.0364 7.84327 9.32506 8.29501 8.74828 8.89319C8.1715 9.49136 7.74597 10.2187 7.5071 11.0146C7.26823 11.8104 7.22295 12.6519 7.37501 13.4688C7.55771 14.4531 8.02045 15.3639 8.70776 16.0919C9.39507 16.8198 10.2778 17.3341 11.25 17.573C13.1667 18.0209 14.9896 17.4063 16.1875 16.1875C17.1146 17.4584 18.9688 18.125 20.6667 17.448C22.0625 16.8959 22.9167 15.4688 22.9167 13.9688V12.8334C22.9167 7.30212 18.7604 2.48962 13.25 2.11462ZM12.5 15.625C10.7708 15.625 9.37501 14.2292 9.37501 12.5C9.37501 10.7709 10.7708 9.37504 12.5 9.37504C14.2292 9.37504 15.625 10.7709 15.625 12.5C15.625 14.2292 14.2292 15.625 12.5 15.625Z" fill="#29A3FF"/>
<path d="M13.25 2.11462C11.7599 2.00615 10.2638 2.2198 8.86362 2.74104C7.4634 3.26229 6.19183 4.07891 5.13535 5.13538C4.07887 6.19186 3.26225 7.46343 2.74101 8.86365C2.21977 10.2639 2.00612 11.7599 2.11459 13.25C2.48959 18.7605 7.30209 22.9167 12.8229 22.9167H16.6667C17.2396 22.9167 17.7083 22.448 17.7083 21.875C17.7083 21.3021 17.2396 20.8334 16.6667 20.8334H12.8438C8.95834 20.8334 5.39584 18.3125 4.42709 14.5521C2.87501 8.51046 8.50001 2.87504 14.5417 4.43754C18.3125 5.39587 20.8333 8.95837 20.8333 12.8438V13.9896C20.8333 14.8125 20.0938 15.625 19.2708 15.625C18.4479 15.625 17.7083 14.8125 17.7083 13.9896V12.6875C17.7083 10.073 15.8542 7.71879 13.2708 7.35421C12.4489 7.23199 11.6097 7.30789 10.823 7.57558C10.0364 7.84327 9.32506 8.29501 8.74828 8.89319C8.1715 9.49136 7.74597 10.2187 7.5071 11.0146C7.26823 11.8104 7.22295 12.6519 7.37501 13.4688C7.55771 14.4531 8.02045 15.3639 8.70776 16.0919C9.39507 16.8198 10.2778 17.3341 11.25 17.573C13.1667 18.0209 14.9896 17.4063 16.1875 16.1875C17.1146 17.4584 18.9688 18.125 20.6667 17.448C22.0625 16.8959 22.9167 15.4688 22.9167 13.9688V12.8334C22.9167 7.30212 18.7604 2.48962 13.25 2.11462ZM12.5 15.625C10.7708 15.625 9.37501 14.2292 9.37501 12.5C9.37501 10.7709 10.7708 9.37504 12.5 9.37504C14.2292 9.37504 15.625 10.7709 15.625 12.5C15.625 14.2292 14.2292 15.625 12.5 15.625Z" fill="url(#paint0_linear_48_78)"/>
<defs>
<linearGradient id="paint0_linear_48_78" x1="12.5019" y1="2.08716" x2="12.5019" y2="22.9167" gradientUnits="userSpaceOnUse">
<stop stop-color="#6377FF"/>
<stop offset="1" stop-color="#6377FF" stop-opacity="0"/>
</linearGradient>
</defs>
</svg>
