<svg width="46" height="42" viewBox="0 0 46 42" fill="none" xmlns="http://www.w3.org/2000/svg">
<path d="M35.0476 17.4941C33.3048 17.4941 31.6333 16.8029 30.4009 15.5726C29.1685 14.3423 28.4762 12.6737 28.4762 10.9338V2.18676H10.9524C9.79048 2.18676 8.67617 2.64754 7.85458 3.46774C7.03299 4.28793 6.57143 5.40035 6.57143 6.56028V30.6147C6.57143 31.7746 7.03299 32.887 7.85458 33.7072C8.67617 34.5274 9.79048 34.9882 10.9524 34.9882H39.4286C40.5905 34.9882 41.7048 34.5274 42.5264 33.7072C43.348 32.887 43.8095 31.7746 43.8095 30.6147V17.4941H35.0476ZM30.6667 10.9338C30.6667 12.0937 31.1282 13.2062 31.9498 14.0264C32.7714 14.8465 33.8857 15.3073 35.0476 15.3073H42.9027L30.6667 3.09208V10.9338ZM10.9524 0H30.6667L46 15.3073V30.6147C46 32.3545 45.3077 34.0232 44.0753 35.2535C42.8429 36.4838 41.1714 37.1749 39.4286 37.1749H10.9524C9.20953 37.1749 7.53806 36.4838 6.30568 35.2535C5.0733 34.0232 4.38095 32.3545 4.38095 30.6147V6.56028C4.38095 4.82039 5.0733 3.15175 6.30568 1.92146C7.53806 0.691171 9.20953 0 10.9524 0ZM10.9524 41.5485C9.51409 41.5485 8.08989 41.2657 6.76109 40.7162C5.43228 40.1667 4.2249 39.3613 3.20788 38.346C2.19086 37.3307 1.38411 36.1254 0.8337 34.7988C0.283292 33.4723 0 32.0505 0 30.6147V8.74704H2.19048V30.6147C2.19048 32.9345 3.1136 35.1594 4.75678 36.7997C6.39995 38.4401 8.62858 39.3617 10.9524 39.3617H37.2381V41.5485H10.9524Z" fill="#29A3FF"/>
<path d="M35.0476 17.4941C33.3048 17.4941 31.6333 16.8029 30.4009 15.5726C29.1685 14.3423 28.4762 12.6737 28.4762 10.9338V2.18676H10.9524C9.79048 2.18676 8.67617 2.64754 7.85458 3.46774C7.03299 4.28793 6.57143 5.40035 6.57143 6.56028V30.6147C6.57143 31.7746 7.03299 32.887 7.85458 33.7072C8.67617 34.5274 9.79048 34.9882 10.9524 34.9882H39.4286C40.5905 34.9882 41.7048 34.5274 42.5264 33.7072C43.348 32.887 43.8095 31.7746 43.8095 30.6147V17.4941H35.0476ZM30.6667 10.9338C30.6667 12.0937 31.1282 13.2062 31.9498 14.0264C32.7714 14.8465 33.8857 15.3073 35.0476 15.3073H42.9027L30.6667 3.09208V10.9338ZM10.9524 0H30.6667L46 15.3073V30.6147C46 32.3545 45.3077 34.0232 44.0753 35.2535C42.8429 36.4838 41.1714 37.1749 39.4286 37.1749H10.9524C9.20953 37.1749 7.53806 36.4838 6.30568 35.2535C5.0733 34.0232 4.38095 32.3545 4.38095 30.6147V6.56028C4.38095 4.82039 5.0733 3.15175 6.30568 1.92146C7.53806 0.691171 9.20953 0 10.9524 0ZM10.9524 41.5485C9.51409 41.5485 8.08989 41.2657 6.76109 40.7162C5.43228 40.1667 4.2249 39.3613 3.20788 38.346C2.19086 37.3307 1.38411 36.1254 0.8337 34.7988C0.283292 33.4723 0 32.0505 0 30.6147V8.74704H2.19048V30.6147C2.19048 32.9345 3.1136 35.1594 4.75678 36.7997C6.39995 38.4401 8.62858 39.3617 10.9524 39.3617H37.2381V41.5485H10.9524Z" fill="url(#paint0_linear_16_5)"/>
<defs>
<linearGradient id="paint0_linear_16_5" x1="23" y1="0" x2="23" y2="41.5485" gradientUnits="userSpaceOnUse">
<stop stop-color="#6377FF"/>
<stop offset="1" stop-color="#6377FF" stop-opacity="0"/>
</linearGradient>
</defs>
</svg>
