<svg width="29" height="30" viewBox="0 0 29 30" fill="none" xmlns="http://www.w3.org/2000/svg">
<path d="M14.5 0.47998C6.49177 0.47998 0 6.97175 0 14.98C0 22.9882 6.49177 29.48 14.5 29.48C22.5082 29.48 29 22.9882 29 14.98C29 6.97175 22.5082 0.47998 14.5 0.47998ZM17.9347 10.5001H15.7552C15.4969 10.5001 15.2099 10.8399 15.2099 11.2915V12.8654H17.9362L17.5239 15.1099H15.2099V21.8478H12.6377V15.1099H10.3041V12.8654H12.6377V11.5453C12.6377 9.65123 13.9517 8.11212 15.7552 8.11212H17.9347V10.5001Z" fill="#29A3FF"/>
<path d="M14.5 0.47998C6.49177 0.47998 0 6.97175 0 14.98C0 22.9882 6.49177 29.48 14.5 29.48C22.5082 29.48 29 22.9882 29 14.98C29 6.97175 22.5082 0.47998 14.5 0.47998ZM17.9347 10.5001H15.7552C15.4969 10.5001 15.2099 10.8399 15.2099 11.2915V12.8654H17.9362L17.5239 15.1099H15.2099V21.8478H12.6377V15.1099H10.3041V12.8654H12.6377V11.5453C12.6377 9.65123 13.9517 8.11212 15.7552 8.11212H17.9347V10.5001Z" fill="url(#paint0_linear_48_89)"/>
<defs>
<linearGradient id="paint0_linear_48_89" x1="14.5" y1="0.47998" x2="14.5" y2="29.48" gradientUnits="userSpaceOnUse">
<stop stop-color="#6377FF"/>
<stop offset="1" stop-color="#6377FF" stop-opacity="0"/>
</linearGradient>
</defs>
</svg>
