<svg width="148" height="119" viewBox="0 0 148 119" fill="none" xmlns="http://www.w3.org/2000/svg">
<rect x="9" y="4" width="130" height="1" fill="#7392FF"/>
<rect x="29" y="15" width="40" height="1" fill="#7392FF"/>
<rect x="10" y="27" width="49" height="1" fill="#7392FF"/>
<rect x="89" y="27" width="49" height="1" fill="#7392FF"/>
<rect x="68" y="102" width="86" height="1" transform="rotate(-90 68 102)" fill="#7392FF"/>
<rect x="58" y="114" width="86" height="1" transform="rotate(-90 58 114)" fill="#7392FF"/>
<rect x="89" y="114" width="86" height="1" transform="rotate(-90 89 114)" fill="#7392FF"/>
<rect x="79" y="87" width="71" height="1" transform="rotate(-90 79 87)" fill="#7392FF"/>
<rect x="79" y="15" width="40" height="1" fill="#7392FF"/>
<circle cx="5" cy="5" r="5" fill="url(#paint0_linear_938_13)"/>
<circle cx="143" cy="27" r="5" transform="rotate(-180 143 27)" fill="url(#paint1_linear_938_13)"/>
<circle cx="80" cy="82" r="5" transform="rotate(-180 80 82)" fill="url(#paint2_linear_938_13)"/>
<circle cx="68" cy="97" r="5" transform="rotate(-180 68 97)" fill="url(#paint3_linear_938_13)"/>
<circle cx="58" cy="114" r="5" transform="rotate(-180 58 114)" fill="url(#paint4_linear_938_13)"/>
<circle cx="89" cy="114" r="5" transform="rotate(-180 89 114)" fill="url(#paint5_linear_938_13)"/>
<circle cx="24" cy="16" r="5" fill="url(#paint6_linear_938_13)"/>
<circle cx="124" cy="16" r="5" transform="rotate(-180 124 16)" fill="url(#paint7_linear_938_13)"/>
<circle cx="5" cy="27" r="5" fill="url(#paint8_linear_938_13)"/>
<circle cx="143" cy="5" r="5" transform="rotate(-180 143 5)" fill="url(#paint9_linear_938_13)"/>
<defs>
<linearGradient id="paint0_linear_938_13" x1="5" y1="0" x2="5" y2="10" gradientUnits="userSpaceOnUse">
<stop stop-color="#6377FF"/>
<stop offset="1" stop-color="#00C2FF"/>
</linearGradient>
<linearGradient id="paint1_linear_938_13" x1="143" y1="22" x2="143" y2="32" gradientUnits="userSpaceOnUse">
<stop stop-color="#6377FF"/>
<stop offset="1" stop-color="#00C2FF"/>
</linearGradient>
<linearGradient id="paint2_linear_938_13" x1="80" y1="77" x2="80" y2="87" gradientUnits="userSpaceOnUse">
<stop stop-color="#6377FF"/>
<stop offset="1" stop-color="#00C2FF"/>
</linearGradient>
<linearGradient id="paint3_linear_938_13" x1="68" y1="92" x2="68" y2="102" gradientUnits="userSpaceOnUse">
<stop stop-color="#6377FF"/>
<stop offset="1" stop-color="#00C2FF"/>
</linearGradient>
<linearGradient id="paint4_linear_938_13" x1="58" y1="109" x2="58" y2="119" gradientUnits="userSpaceOnUse">
<stop stop-color="#6377FF"/>
<stop offset="1" stop-color="#00C2FF"/>
</linearGradient>
<linearGradient id="paint5_linear_938_13" x1="89" y1="109" x2="89" y2="119" gradientUnits="userSpaceOnUse">
<stop stop-color="#6377FF"/>
<stop offset="1" stop-color="#00C2FF"/>
</linearGradient>
<linearGradient id="paint6_linear_938_13" x1="24" y1="11" x2="24" y2="21" gradientUnits="userSpaceOnUse">
<stop stop-color="#6377FF"/>
<stop offset="1" stop-color="#00C2FF"/>
</linearGradient>
<linearGradient id="paint7_linear_938_13" x1="124" y1="11" x2="124" y2="21" gradientUnits="userSpaceOnUse">
<stop stop-color="#6377FF"/>
<stop offset="1" stop-color="#00C2FF"/>
</linearGradient>
<linearGradient id="paint8_linear_938_13" x1="5" y1="22" x2="5" y2="32" gradientUnits="userSpaceOnUse">
<stop stop-color="#6377FF"/>
<stop offset="1" stop-color="#00C2FF"/>
</linearGradient>
<linearGradient id="paint9_linear_938_13" x1="143" y1="-4.76837e-07" x2="143" y2="10" gradientUnits="userSpaceOnUse">
<stop stop-color="#6377FF"/>
<stop offset="1" stop-color="#00C2FF"/>
</linearGradient>
</defs>
</svg>
