<svg width="46" height="47" viewBox="0 0 46 47" fill="none" xmlns="http://www.w3.org/2000/svg">
<path d="M42.9793 30.9139L38.4982 27.7254C39.2508 24.9566 39.2465 22.0363 38.4858 19.2697L42.9818 16.1207L39.3924 9.90678L34.3925 12.1956C32.3716 10.1589 29.8412 8.70266 27.0656 7.97883L26.5888 2.50892H19.4101L18.9333 7.97883C16.1583 8.70365 13.6287 10.1608 11.6088 12.1981L6.60644 9.90925L3.01955 16.1232L7.51552 19.2721C6.75447 22.0378 6.74935 24.9571 7.5007 27.7254L3.01955 30.9139L6.60644 37.0982L11.6088 34.8069C13.629 36.8432 16.1585 38.2995 18.9333 39.0236L19.4101 44.4936H26.5888L27.0656 39.0236C29.8403 38.2994 32.3698 36.8431 34.3901 34.8069L39.3924 37.0982L42.9818 30.9164L42.9793 30.9139ZM27.9524 0.000122764C28.2704 -0.000214014 28.5763 0.12216 28.8063 0.341772C29.0364 0.561385 29.173 0.861315 29.1876 1.17913L29.6273 6.20908C31.4534 6.90539 33.157 7.88826 34.6742 9.12077L39.2442 6.98767C39.5265 6.84236 39.8538 6.81136 40.1583 6.90111C40.4628 6.99085 40.7211 7.19445 40.8796 7.46966L45.8326 16.0465C45.9917 16.3215 46.0389 16.6471 45.9644 16.956C45.8899 17.2648 45.6993 17.5331 45.4324 17.7051L41.2971 20.6019C41.6133 22.5743 41.6034 24.5394 41.2995 26.4327L45.4324 29.3246C45.7 29.4966 45.891 29.7653 45.9655 30.0748C46.0401 30.3842 45.9925 30.7105 45.8326 30.9856L40.8796 39.5303C40.7211 39.8055 40.4628 40.0091 40.1583 40.0989C39.8538 40.1886 39.5265 40.1576 39.2442 40.0123L34.6742 37.8792C33.187 39.0904 31.4924 40.0791 29.6273 40.7934L29.1876 45.8233C29.1723 46.1407 29.0355 46.44 28.8055 46.6591C28.5755 46.8782 28.27 47.0002 27.9524 46.9999H18.0465C17.7289 47.0002 17.4234 46.8782 17.1934 46.6591C16.9634 46.44 16.8266 46.1407 16.8113 45.8233L16.3716 40.7934C14.5454 40.0962 12.8418 39.1125 11.3247 37.8792L6.75466 40.0123C6.47244 40.1586 6.14473 40.1904 5.83968 40.1011C5.53464 40.0118 5.27575 39.8082 5.11684 39.5328L0.166335 30.9831C0.00719232 30.7082 -0.0400197 30.3825 0.0345001 30.0737C0.10902 29.7649 0.299547 29.4966 0.566526 29.3246L4.69936 26.4302C4.38987 24.499 4.38987 22.5307 4.69936 20.5994L0.568996 17.7051C0.302671 17.5331 0.112599 17.2653 0.0381093 16.9571C-0.0363808 16.6488 0.0104116 16.3237 0.168805 16.049L5.11437 7.46966C5.27287 7.19381 5.53159 6.98976 5.83667 6.89998C6.14175 6.8102 6.46968 6.84161 6.75219 6.98767L11.3223 9.12077C12.8394 7.88826 14.543 6.90539 16.3691 6.20908L16.8088 1.17913C16.8235 0.861315 16.96 0.561385 17.1901 0.341772C17.4202 0.12216 17.726 -0.000214014 18.044 0.000122764H27.95H27.9524ZM22.9994 14.8675C25.2925 14.8675 27.4917 15.779 29.1132 17.4013C30.7346 19.0237 31.6455 21.2241 31.6455 23.5185C31.6455 25.8129 30.7346 28.0134 29.1132 29.6357C27.4917 31.2581 25.2925 32.1696 22.9994 32.1696C20.7064 32.1696 18.5072 31.2581 16.8857 29.6357C15.2643 28.0134 14.3533 25.8129 14.3533 23.5185C14.3533 21.2241 15.2643 19.0237 16.8857 17.4013C18.5072 15.779 20.7064 14.8675 22.9994 14.8675ZM22.9994 17.3392C21.3615 17.3392 19.7907 17.9903 18.6325 19.1491C17.4743 20.308 16.8237 21.8797 16.8237 23.5185C16.8237 25.1574 17.4743 26.7291 18.6325 27.888C19.7907 29.0468 21.3615 29.6978 22.9994 29.6978C24.6374 29.6978 26.2082 29.0468 27.3664 27.888C28.5246 26.7291 29.1752 25.1574 29.1752 23.5185C29.1752 21.8797 28.5246 20.308 27.3664 19.1491C26.2082 17.9903 24.6374 17.3392 22.9994 17.3392Z" fill="#29A3FF"/>
<path d="M42.9793 30.9139L38.4982 27.7254C39.2508 24.9566 39.2465 22.0363 38.4858 19.2697L42.9818 16.1207L39.3924 9.90678L34.3925 12.1956C32.3716 10.1589 29.8412 8.70266 27.0656 7.97883L26.5888 2.50892H19.4101L18.9333 7.97883C16.1583 8.70365 13.6287 10.1608 11.6088 12.1981L6.60644 9.90925L3.01955 16.1232L7.51552 19.2721C6.75447 22.0378 6.74935 24.9571 7.5007 27.7254L3.01955 30.9139L6.60644 37.0982L11.6088 34.8069C13.629 36.8432 16.1585 38.2995 18.9333 39.0236L19.4101 44.4936H26.5888L27.0656 39.0236C29.8403 38.2994 32.3698 36.8431 34.3901 34.8069L39.3924 37.0982L42.9818 30.9164L42.9793 30.9139ZM27.9524 0.000122764C28.2704 -0.000214014 28.5763 0.12216 28.8063 0.341772C29.0364 0.561385 29.173 0.861315 29.1876 1.17913L29.6273 6.20908C31.4534 6.90539 33.157 7.88826 34.6742 9.12077L39.2442 6.98767C39.5265 6.84236 39.8538 6.81136 40.1583 6.90111C40.4628 6.99085 40.7211 7.19445 40.8796 7.46966L45.8326 16.0465C45.9917 16.3215 46.0389 16.6471 45.9644 16.956C45.8899 17.2648 45.6993 17.5331 45.4324 17.7051L41.2971 20.6019C41.6133 22.5743 41.6034 24.5394 41.2995 26.4327L45.4324 29.3246C45.7 29.4966 45.891 29.7653 45.9655 30.0748C46.0401 30.3842 45.9925 30.7105 45.8326 30.9856L40.8796 39.5303C40.7211 39.8055 40.4628 40.0091 40.1583 40.0989C39.8538 40.1886 39.5265 40.1576 39.2442 40.0123L34.6742 37.8792C33.187 39.0904 31.4924 40.0791 29.6273 40.7934L29.1876 45.8233C29.1723 46.1407 29.0355 46.44 28.8055 46.6591C28.5755 46.8782 28.27 47.0002 27.9524 46.9999H18.0465C17.7289 47.0002 17.4234 46.8782 17.1934 46.6591C16.9634 46.44 16.8266 46.1407 16.8113 45.8233L16.3716 40.7934C14.5454 40.0962 12.8418 39.1125 11.3247 37.8792L6.75466 40.0123C6.47244 40.1586 6.14473 40.1904 5.83968 40.1011C5.53464 40.0118 5.27575 39.8082 5.11684 39.5328L0.166335 30.9831C0.00719232 30.7082 -0.0400197 30.3825 0.0345001 30.0737C0.10902 29.7649 0.299547 29.4966 0.566526 29.3246L4.69936 26.4302C4.38987 24.499 4.38987 22.5307 4.69936 20.5994L0.568996 17.7051C0.302671 17.5331 0.112599 17.2653 0.0381093 16.9571C-0.0363808 16.6488 0.0104116 16.3237 0.168805 16.049L5.11437 7.46966C5.27287 7.19381 5.53159 6.98976 5.83667 6.89998C6.14175 6.8102 6.46968 6.84161 6.75219 6.98767L11.3223 9.12077C12.8394 7.88826 14.543 6.90539 16.3691 6.20908L16.8088 1.17913C16.8235 0.861315 16.96 0.561385 17.1901 0.341772C17.4202 0.12216 17.726 -0.000214014 18.044 0.000122764H27.95H27.9524ZM22.9994 14.8675C25.2925 14.8675 27.4917 15.779 29.1132 17.4013C30.7346 19.0237 31.6455 21.2241 31.6455 23.5185C31.6455 25.8129 30.7346 28.0134 29.1132 29.6357C27.4917 31.2581 25.2925 32.1696 22.9994 32.1696C20.7064 32.1696 18.5072 31.2581 16.8857 29.6357C15.2643 28.0134 14.3533 25.8129 14.3533 23.5185C14.3533 21.2241 15.2643 19.0237 16.8857 17.4013C18.5072 15.779 20.7064 14.8675 22.9994 14.8675ZM22.9994 17.3392C21.3615 17.3392 19.7907 17.9903 18.6325 19.1491C17.4743 20.308 16.8237 21.8797 16.8237 23.5185C16.8237 25.1574 17.4743 26.7291 18.6325 27.888C19.7907 29.0468 21.3615 29.6978 22.9994 29.6978C24.6374 29.6978 26.2082 29.0468 27.3664 27.888C28.5246 26.7291 29.1752 25.1574 29.1752 23.5185C29.1752 21.8797 28.5246 20.308 27.3664 19.1491C26.2082 17.9903 24.6374 17.3392 22.9994 17.3392Z" fill="url(#paint0_linear_15_6)"/>
<defs>
<linearGradient id="paint0_linear_15_6" x1="23" y1="0.00012207" x2="23" y2="46.9999" gradientUnits="userSpaceOnUse">
<stop stop-color="#6377FF"/>
<stop offset="1" stop-color="#6377FF" stop-opacity="0"/>
</linearGradient>
</defs>
</svg>
