<svg width="31" height="41" viewBox="0 0 31 41" fill="none" xmlns="http://www.w3.org/2000/svg">
<path d="M24.5999 12.3C26.231 12.3 27.7952 12.9479 28.9486 14.1013C30.1019 15.2546 30.7499 16.8189 30.7499 18.45V34.85C30.7499 36.4811 30.1019 38.0454 28.9486 39.1987C27.7952 40.3521 26.231 41 24.5999 41H6.14988C4.5188 41 2.95452 40.3521 1.80117 39.1987C0.647823 38.0454 -0.00012207 36.4811 -0.00012207 34.85V18.45C-0.00012207 16.8189 0.647823 15.2546 1.80117 14.1013C2.95452 12.9479 4.5188 12.3 6.14988 12.3V9.225C6.14988 6.77838 7.1218 4.43196 8.85182 2.70194C10.5818 0.971917 12.9283 0 15.3749 0C17.8215 0 20.1679 0.971917 21.8979 2.70194C23.628 4.43196 24.5999 6.77838 24.5999 9.225V12.3ZM6.14988 14.35C5.06249 14.35 4.01964 14.782 3.25074 15.5509C2.48184 16.3198 2.04988 17.3626 2.04988 18.45V34.85C2.04988 35.9374 2.48184 36.9802 3.25074 37.7491C4.01964 38.518 5.06249 38.95 6.14988 38.95H24.5999C25.6873 38.95 26.7301 38.518 27.499 37.7491C28.2679 36.9802 28.6999 35.9374 28.6999 34.85V18.45C28.6999 17.3626 28.2679 16.3198 27.499 15.5509C26.7301 14.782 25.6873 14.35 24.5999 14.35H6.14988ZM22.5499 12.3V9.225C22.5499 7.32207 21.7939 5.49708 20.4484 4.15151C19.1028 2.80594 17.2778 2.05 15.3749 2.05C13.4719 2.05 11.647 2.80594 10.3014 4.15151C8.95581 5.49708 8.19988 7.32207 8.19988 9.225V12.3H22.5499Z" fill="#29A3FF"/>
<path d="M24.5999 12.3C26.231 12.3 27.7952 12.9479 28.9486 14.1013C30.1019 15.2546 30.7499 16.8189 30.7499 18.45V34.85C30.7499 36.4811 30.1019 38.0454 28.9486 39.1987C27.7952 40.3521 26.231 41 24.5999 41H6.14988C4.5188 41 2.95452 40.3521 1.80117 39.1987C0.647823 38.0454 -0.00012207 36.4811 -0.00012207 34.85V18.45C-0.00012207 16.8189 0.647823 15.2546 1.80117 14.1013C2.95452 12.9479 4.5188 12.3 6.14988 12.3V9.225C6.14988 6.77838 7.1218 4.43196 8.85182 2.70194C10.5818 0.971917 12.9283 0 15.3749 0C17.8215 0 20.1679 0.971917 21.8979 2.70194C23.628 4.43196 24.5999 6.77838 24.5999 9.225V12.3ZM6.14988 14.35C5.06249 14.35 4.01964 14.782 3.25074 15.5509C2.48184 16.3198 2.04988 17.3626 2.04988 18.45V34.85C2.04988 35.9374 2.48184 36.9802 3.25074 37.7491C4.01964 38.518 5.06249 38.95 6.14988 38.95H24.5999C25.6873 38.95 26.7301 38.518 27.499 37.7491C28.2679 36.9802 28.6999 35.9374 28.6999 34.85V18.45C28.6999 17.3626 28.2679 16.3198 27.499 15.5509C26.7301 14.782 25.6873 14.35 24.5999 14.35H6.14988ZM22.5499 12.3V9.225C22.5499 7.32207 21.7939 5.49708 20.4484 4.15151C19.1028 2.80594 17.2778 2.05 15.3749 2.05C13.4719 2.05 11.647 2.80594 10.3014 4.15151C8.95581 5.49708 8.19988 7.32207 8.19988 9.225V12.3H22.5499Z" fill="url(#paint0_linear_16_9)"/>
<defs>
<linearGradient id="paint0_linear_16_9" x1="15.3749" y1="0" x2="15.3749" y2="41" gradientUnits="userSpaceOnUse">
<stop stop-color="#6377FF"/>
<stop offset="1" stop-color="#6377FF" stop-opacity="0"/>
</linearGradient>
</defs>
</svg>
