<svg width="144" height="115" viewBox="0 0 144 115" fill="none" xmlns="http://www.w3.org/2000/svg">
<rect x="8.69751" y="3.86551" width="125.63" height="0.966386" fill="#7392FF"/>
<rect x="28.0253" y="14.4958" width="38.6555" height="0.966386" fill="#7392FF"/>
<rect x="9.66394" y="26.0924" width="47.3529" height="0.966386" fill="#7392FF"/>
<rect x="86.0084" y="26.0924" width="47.3529" height="0.966386" fill="#7392FF"/>
<rect x="65.7144" y="98.5714" width="83.1092" height="0.96639" transform="rotate(-90 65.7144 98.5714)" fill="#ECFD81"/>
<rect x="56.0503" y="110.168" width="83.1092" height="0.96639" transform="rotate(-90 56.0503 110.168)" fill="#ECFD81"/>
<rect x="86.0084" y="110.168" width="83.1092" height="0.96639" transform="rotate(-90 86.0084 110.168)" fill="#FCFF7A"/>
<rect x="76.3445" y="84.0756" width="68.6134" height="0.966389" transform="rotate(-90 76.3445 84.0756)" fill="#FCFF7A"/>
<rect x="76.3445" y="14.4957" width="38.6555" height="0.966386" fill="#7392FF"/>
<circle cx="4.83193" cy="4.83193" r="4.83193" fill="url(#paint0_linear_8_13)"/>
<circle cx="138.193" cy="26.0924" r="4.83193" transform="rotate(-180 138.193 26.0924)" fill="url(#paint1_linear_8_13)"/>
<circle cx="77.3109" cy="79.2437" r="4.83193" transform="rotate(-180 77.3109 79.2437)" fill="#ECFD81"/>
<circle cx="65.7142" cy="93.7395" r="4.83193" transform="rotate(-180 65.7142 93.7395)" fill="#ECFD81"/>
<circle cx="56.0505" cy="110.168" r="4.83193" transform="rotate(-180 56.0505 110.168)" fill="#ECFD82"/>
<circle cx="86.0084" cy="110.168" r="4.83193" transform="rotate(-180 86.0084 110.168)" fill="#ECFD81"/>
<circle cx="23.1933" cy="15.4622" r="4.83193" fill="url(#paint2_linear_8_13)"/>
<circle cx="119.832" cy="15.4622" r="4.83193" transform="rotate(-180 119.832 15.4622)" fill="url(#paint3_linear_8_13)"/>
<circle cx="4.83193" cy="26.0925" r="4.83193" fill="url(#paint4_linear_8_13)"/>
<circle cx="138.193" cy="4.83195" r="4.83193" transform="rotate(-180 138.193 4.83195)" fill="url(#paint5_linear_8_13)"/>
<defs>
<linearGradient id="paint0_linear_8_13" x1="4.83193" y1="0" x2="4.83193" y2="9.66386" gradientUnits="userSpaceOnUse">
<stop stop-color="#6377FF"/>
<stop offset="1" stop-color="#00C2FF"/>
</linearGradient>
<linearGradient id="paint1_linear_8_13" x1="138.193" y1="21.2605" x2="138.193" y2="30.9243" gradientUnits="userSpaceOnUse">
<stop stop-color="#6377FF"/>
<stop offset="1" stop-color="#00C2FF"/>
</linearGradient>
<linearGradient id="paint2_linear_8_13" x1="23.1933" y1="10.6302" x2="23.1933" y2="20.2941" gradientUnits="userSpaceOnUse">
<stop stop-color="#6377FF"/>
<stop offset="1" stop-color="#00C2FF"/>
</linearGradient>
<linearGradient id="paint3_linear_8_13" x1="119.832" y1="10.6303" x2="119.832" y2="20.2941" gradientUnits="userSpaceOnUse">
<stop stop-color="#6377FF"/>
<stop offset="1" stop-color="#00C2FF"/>
</linearGradient>
<linearGradient id="paint4_linear_8_13" x1="4.83193" y1="21.2605" x2="4.83193" y2="30.9244" gradientUnits="userSpaceOnUse">
<stop stop-color="#6377FF"/>
<stop offset="1" stop-color="#00C2FF"/>
</linearGradient>
<linearGradient id="paint5_linear_8_13" x1="138.193" y1="1.4782e-05" x2="138.193" y2="9.66388" gradientUnits="userSpaceOnUse">
<stop stop-color="#6377FF"/>
<stop offset="1" stop-color="#00C2FF"/>
</linearGradient>
</defs>
</svg>
