<svg width="20" height="20" viewBox="0 0 20 20" fill="none" xmlns="http://www.w3.org/2000/svg">
<g clip-path="url(#clip0_48_61)">
<path d="M19.4507 5.2499L17.1026 2.90186C16.3702 2.16943 15.1823 2.16943 14.4499 2.90186L12.2409 5.11084L17.2417 10.1116L19.4507 7.90264C20.1831 7.17022 20.1831 5.98271 19.4507 5.2499ZM9.81003 4.44795C9.19987 3.83779 8.21081 3.83779 7.60066 4.44795L2.96081 9.08818C2.71667 9.33232 2.71667 9.72803 2.96081 9.97178L3.8448 10.8558C4.08894 11.0999 4.48464 11.0999 4.72878 10.8558L8.70613 6.87842L9.59011 7.76201L3.6698 13.6819C1.61915 15.7326 0.327259 18.42 0.00651554 21.3022L0.00534367 21.3112C-0.0610626 21.9081 0.443234 22.4128 1.04011 22.3468C3.9261 22.0281 6.61742 20.7358 8.67058 18.6827L16.3577 10.9956L13.1245 7.7624L9.81003 4.44795Z" fill="#EFEFEF"/>
</g>
<defs>
<clipPath id="clip0_48_61">
<rect width="20" height="20" fill="white"/>
</clipPath>
</defs>
</svg>
