<svg width="17" height="28" viewBox="0 0 17 28" fill="none" xmlns="http://www.w3.org/2000/svg">
<path d="M13.6 2.50005C14.0509 2.50005 14.4833 2.67916 14.8021 2.99797C15.1209 3.31678 15.3 3.74918 15.3 4.20005V24.6C15.3 25.0509 15.1209 25.4833 14.8021 25.8021C14.4833 26.1209 14.0509 26.3 13.6 26.3H3.4C2.94913 26.3 2.51673 26.1209 2.19792 25.8021C1.87911 25.4833 1.7 25.0509 1.7 24.6V4.20005C1.7 3.74918 1.87911 3.31678 2.19792 2.99797C2.51673 2.67916 2.94913 2.50005 3.4 2.50005H13.6ZM3.4 0.800049C2.49826 0.800049 1.63346 1.15826 0.995837 1.79589C0.358213 2.43351 0 3.29831 0 4.20005V24.6C0 25.5018 0.358213 26.3666 0.995837 27.0042C1.63346 27.6418 2.49826 28 3.4 28H13.6C14.5017 28 15.3665 27.6418 16.0042 27.0042C16.6418 26.3666 17 25.5018 17 24.6V4.20005C17 3.29831 16.6418 2.43351 16.0042 1.79589C15.3665 1.15826 14.5017 0.800049 13.6 0.800049L3.4 0.800049Z" fill="#29A3FF"/>
<path d="M13.6 2.50005C14.0509 2.50005 14.4833 2.67916 14.8021 2.99797C15.1209 3.31678 15.3 3.74918 15.3 4.20005V24.6C15.3 25.0509 15.1209 25.4833 14.8021 25.8021C14.4833 26.1209 14.0509 26.3 13.6 26.3H3.4C2.94913 26.3 2.51673 26.1209 2.19792 25.8021C1.87911 25.4833 1.7 25.0509 1.7 24.6V4.20005C1.7 3.74918 1.87911 3.31678 2.19792 2.99797C2.51673 2.67916 2.94913 2.50005 3.4 2.50005H13.6ZM3.4 0.800049C2.49826 0.800049 1.63346 1.15826 0.995837 1.79589C0.358213 2.43351 0 3.29831 0 4.20005V24.6C0 25.5018 0.358213 26.3666 0.995837 27.0042C1.63346 27.6418 2.49826 28 3.4 28H13.6C14.5017 28 15.3665 27.6418 16.0042 27.0042C16.6418 26.3666 17 25.5018 17 24.6V4.20005C17 3.29831 16.6418 2.43351 16.0042 1.79589C15.3665 1.15826 14.5017 0.800049 13.6 0.800049L3.4 0.800049Z" fill="url(#paint0_linear_48_82)"/>
<path d="M8.49999 24.6C8.95086 24.6 9.38326 24.4208 9.70207 24.102C10.0209 23.7832 10.2 23.3508 10.2 22.9C10.2 22.4491 10.0209 22.0167 9.70207 21.6979C9.38326 21.3791 8.95086 21.2 8.49999 21.2C8.04912 21.2 7.61672 21.3791 7.29791 21.6979C6.97909 22.0167 6.79999 22.4491 6.79999 22.9C6.79999 23.3508 6.97909 23.7832 7.29791 24.102C7.61672 24.4208 8.04912 24.6 8.49999 24.6Z" fill="#29A3FF"/>
<path d="M8.49999 24.6C8.95086 24.6 9.38326 24.4208 9.70207 24.102C10.0209 23.7832 10.2 23.3508 10.2 22.9C10.2 22.4491 10.0209 22.0167 9.70207 21.6979C9.38326 21.3791 8.95086 21.2 8.49999 21.2C8.04912 21.2 7.61672 21.3791 7.29791 21.6979C6.97909 22.0167 6.79999 22.4491 6.79999 22.9C6.79999 23.3508 6.97909 23.7832 7.29791 24.102C7.61672 24.4208 8.04912 24.6 8.49999 24.6Z" fill="url(#paint1_linear_48_82)"/>
<defs>
<linearGradient id="paint0_linear_48_82" x1="8.5" y1="0.800049" x2="8.5" y2="28" gradientUnits="userSpaceOnUse">
<stop stop-color="#6377FF"/>
<stop offset="1" stop-color="#6377FF" stop-opacity="0"/>
</linearGradient>
<linearGradient id="paint1_linear_48_82" x1="8.49999" y1="21.2" x2="8.49999" y2="24.6" gradientUnits="userSpaceOnUse">
<stop stop-color="#6377FF"/>
<stop offset="1" stop-color="#6377FF" stop-opacity="0"/>
</linearGradient>
</defs>
</svg>
