<svg width="51" height="86" viewBox="0 0 51 86" fill="none" xmlns="http://www.w3.org/2000/svg">
<rect x="18.6105" y="65" width="65" height="1" transform="rotate(-90 18.6105 65)" fill="#7392FF"/>
<rect x="6.61053" y="80" width="80" height="1" transform="rotate(-90 6.61053 80)" fill="#7392FF"/>
<rect x="44.6105" y="80" width="80" height="1" transform="rotate(-90 44.6105 80)" fill="#7392FF"/>
<rect x="32.6105" y="46" width="46" height="1" transform="rotate(-90 32.6105 46)" fill="#7392FF"/>
<circle cx="33.3115" cy="40.1686" r="6.16881" transform="rotate(-180 33.3115 40.1686)" fill="url(#paint0_linear_48_92)"/>
<circle cx="18.5062" cy="58.6749" r="6.16881" transform="rotate(-180 18.5062 58.6749)" fill="url(#paint1_linear_48_92)"/>
<circle cx="6.16881" cy="79.6488" r="6.16881" transform="rotate(-180 6.16881 79.6488)" fill="url(#paint2_linear_48_92)"/>
<circle cx="44.4153" cy="79.6488" r="6.16881" transform="rotate(-180 44.4153 79.6488)" fill="url(#paint3_linear_48_92)"/>
<defs>
<linearGradient id="paint0_linear_48_92" x1="33.3115" y1="33.9998" x2="33.3115" y2="46.3374" gradientUnits="userSpaceOnUse">
<stop stop-color="#6377FF"/>
<stop offset="1" stop-color="#00C2FF"/>
</linearGradient>
<linearGradient id="paint1_linear_48_92" x1="18.5062" y1="52.5061" x2="18.5062" y2="64.8438" gradientUnits="userSpaceOnUse">
<stop stop-color="#6377FF"/>
<stop offset="1" stop-color="#00C2FF"/>
</linearGradient>
<linearGradient id="paint2_linear_48_92" x1="6.16881" y1="73.48" x2="6.16881" y2="85.8176" gradientUnits="userSpaceOnUse">
<stop stop-color="#6377FF"/>
<stop offset="1" stop-color="#00C2FF"/>
</linearGradient>
<linearGradient id="paint3_linear_48_92" x1="44.4153" y1="73.48" x2="44.4153" y2="85.8176" gradientUnits="userSpaceOnUse">
<stop stop-color="#6377FF"/>
<stop offset="1" stop-color="#00C2FF"/>
</linearGradient>
</defs>
</svg>
