<svg width="8" height="10" viewBox="0 0 8 10" fill="none" xmlns="http://www.w3.org/2000/svg">
<path d="M0.215465 5.41096L6.71547 9.91097C6.79048 9.96287 6.87826 9.99326 6.96931 9.99886C7.06036 10.0044 7.1512 9.98503 7.232 9.9427C7.3128 9.90036 7.38048 9.83673 7.42772 9.7587C7.47495 9.68066 7.49993 9.59118 7.49997 9.49997V0.499965C7.50003 0.408704 7.47511 0.319166 7.42791 0.241056C7.38072 0.162946 7.31304 0.0992431 7.23222 0.0568509C7.1514 0.0144587 7.06052 -0.00500581 6.96943 0.000567025C6.87834 0.00613986 6.79051 0.0365374 6.71547 0.0884653L0.215465 4.58847C0.149244 4.63468 0.0951634 4.6962 0.0578203 4.7678C0.0204773 4.8394 0.000976562 4.91896 0.000976562 4.99972C0.000976562 5.08047 0.0204773 5.16003 0.0578203 5.23163C0.0951634 5.30323 0.149244 5.36475 0.215465 5.41096Z" fill="#D6D6D6"/>
</svg>
