<svg width="46" height="35" viewBox="0 0 46 35" fill="none" xmlns="http://www.w3.org/2000/svg">
<path d="M29.2684 0.00012207L22.9966 6.17659H6.2718C4.60841 6.17659 3.01316 6.82733 1.83697 7.98564C0.660776 9.14395 0 10.715 0 12.3531L0 18.5295C0 20.1676 0.660776 21.7386 1.83697 22.897C3.01316 24.0553 4.60841 24.706 6.2718 24.706V30.8825C6.2718 31.9745 6.71231 33.0219 7.49644 33.7941C8.28057 34.5663 9.34407 35.0001 10.453 35.0001H12.5436C13.6525 35.0001 14.716 34.5663 15.5001 33.7941C16.2843 33.0219 16.7248 31.9745 16.7248 30.8825V24.706H22.9966L29.2684 30.8825H33.4496V0.00012207H29.2684ZM30.1339 2.05895H31.359V28.8237H30.1339L23.8621 22.6472H6.2718C5.16287 22.6472 4.09937 22.2134 3.31524 21.4412C2.53112 20.6689 2.0906 19.6216 2.0906 18.5295V12.3531C2.0906 11.261 2.53112 10.2137 3.31524 9.44145C4.09937 8.66924 5.16287 8.23542 6.2718 8.23542H23.8621L30.1339 2.05895ZM37.6308 6.17659V8.25189C39.3725 8.49978 40.9651 9.35735 42.1171 10.6675C43.269 11.9777 43.903 13.6527 43.903 15.3857C43.903 17.1187 43.269 18.7938 42.1171 20.1039C40.9651 21.4141 39.3725 22.2716 37.6308 22.5195V24.5928C39.9319 24.3411 42.058 23.2626 43.6021 21.5637C45.1462 19.8648 46 17.6648 46 15.3847C46 13.1046 45.1462 10.9046 43.6021 9.20569C42.058 7.50678 39.9319 6.42828 37.6308 6.17659ZM37.6308 12.4745V18.2969C38.2419 18.0838 38.7709 17.6895 39.145 17.1682C39.5192 16.6468 39.7201 16.0241 39.7201 15.3857C39.7201 14.7473 39.5192 14.1246 39.145 13.6033C38.7709 13.0819 38.2419 12.6876 37.6308 12.4745ZM8.36239 24.706H14.6342V30.8825C14.6342 31.4285 14.4139 31.9522 14.0219 32.3383C13.6298 32.7244 13.0981 32.9413 12.5436 32.9413H10.453C9.89853 32.9413 9.36678 32.7244 8.97472 32.3383C8.58265 31.9522 8.36239 31.4285 8.36239 30.8825V24.706Z" fill="#29A3FF"/>
<path d="M29.2684 0.00012207L22.9966 6.17659H6.2718C4.60841 6.17659 3.01316 6.82733 1.83697 7.98564C0.660776 9.14395 0 10.715 0 12.3531L0 18.5295C0 20.1676 0.660776 21.7386 1.83697 22.897C3.01316 24.0553 4.60841 24.706 6.2718 24.706V30.8825C6.2718 31.9745 6.71231 33.0219 7.49644 33.7941C8.28057 34.5663 9.34407 35.0001 10.453 35.0001H12.5436C13.6525 35.0001 14.716 34.5663 15.5001 33.7941C16.2843 33.0219 16.7248 31.9745 16.7248 30.8825V24.706H22.9966L29.2684 30.8825H33.4496V0.00012207H29.2684ZM30.1339 2.05895H31.359V28.8237H30.1339L23.8621 22.6472H6.2718C5.16287 22.6472 4.09937 22.2134 3.31524 21.4412C2.53112 20.6689 2.0906 19.6216 2.0906 18.5295V12.3531C2.0906 11.261 2.53112 10.2137 3.31524 9.44145C4.09937 8.66924 5.16287 8.23542 6.2718 8.23542H23.8621L30.1339 2.05895ZM37.6308 6.17659V8.25189C39.3725 8.49978 40.9651 9.35735 42.1171 10.6675C43.269 11.9777 43.903 13.6527 43.903 15.3857C43.903 17.1187 43.269 18.7938 42.1171 20.1039C40.9651 21.4141 39.3725 22.2716 37.6308 22.5195V24.5928C39.9319 24.3411 42.058 23.2626 43.6021 21.5637C45.1462 19.8648 46 17.6648 46 15.3847C46 13.1046 45.1462 10.9046 43.6021 9.20569C42.058 7.50678 39.9319 6.42828 37.6308 6.17659ZM37.6308 12.4745V18.2969C38.2419 18.0838 38.7709 17.6895 39.145 17.1682C39.5192 16.6468 39.7201 16.0241 39.7201 15.3857C39.7201 14.7473 39.5192 14.1246 39.145 13.6033C38.7709 13.0819 38.2419 12.6876 37.6308 12.4745ZM8.36239 24.706H14.6342V30.8825C14.6342 31.4285 14.4139 31.9522 14.0219 32.3383C13.6298 32.7244 13.0981 32.9413 12.5436 32.9413H10.453C9.89853 32.9413 9.36678 32.7244 8.97472 32.3383C8.58265 31.9522 8.36239 31.4285 8.36239 30.8825V24.706Z" fill="url(#paint0_linear_10_174)"/>
<defs>
<linearGradient id="paint0_linear_10_174" x1="23" y1="0.00012207" x2="23" y2="35.0001" gradientUnits="userSpaceOnUse">
<stop stop-color="#6377FF"/>
<stop offset="1" stop-color="#6377FF" stop-opacity="0"/>
</linearGradient>
</defs>
</svg>
