<svg width="29" height="29" viewBox="0 0 29 29" fill="none" xmlns="http://www.w3.org/2000/svg">
<path d="M14.5 0C6.49177 0 0 6.49177 0 14.5C0 22.5082 6.49177 29 14.5 29C22.5082 29 29 22.5082 29 14.5C29 6.49177 22.5082 0 14.5 0ZM20.3982 11.8779C20.4042 12.0018 20.4057 12.1256 20.4057 12.2465C20.4057 16.0225 17.5344 20.374 12.2812 20.374C10.7289 20.3766 9.20896 19.9308 7.90401 19.0902C8.12604 19.1173 8.35411 19.1279 8.58521 19.1279C9.92344 19.1279 11.1544 18.6733 12.1317 17.906C11.5361 17.8943 10.9591 17.6971 10.4809 17.3419C10.0028 16.9867 9.64741 16.4911 9.46427 15.9243C9.89195 16.0056 10.3325 15.9886 10.7527 15.8745C10.1063 15.7438 9.52499 15.3935 9.10737 14.8831C8.68976 14.3728 8.46152 13.7336 8.46135 13.0742V13.0394C8.84651 13.2524 9.28755 13.3823 9.75578 13.3974C9.1498 12.994 8.72082 12.3743 8.55658 11.6651C8.39233 10.9559 8.50523 10.2108 8.87219 9.58208C9.58957 10.4642 10.4842 11.1858 11.4981 11.7002C12.5121 12.2145 13.6228 12.5103 14.7583 12.5682C14.6139 11.9554 14.6761 11.3121 14.935 10.7383C15.194 10.1645 15.6353 9.69233 16.1903 9.39519C16.7453 9.09805 17.3829 8.9926 18.004 9.09523C18.6251 9.19786 19.1949 9.50283 19.6248 9.96271C20.264 9.83625 20.8769 9.6018 21.4373 9.26943C21.2243 9.93119 20.7783 10.4931 20.1822 10.8508C20.7484 10.7826 21.3012 10.6304 21.8225 10.3992C21.4396 10.973 20.9572 11.4738 20.3982 11.8779Z" fill="#29A3FF"/>
<path d="M14.5 0C6.49177 0 0 6.49177 0 14.5C0 22.5082 6.49177 29 14.5 29C22.5082 29 29 22.5082 29 14.5C29 6.49177 22.5082 0 14.5 0ZM20.3982 11.8779C20.4042 12.0018 20.4057 12.1256 20.4057 12.2465C20.4057 16.0225 17.5344 20.374 12.2812 20.374C10.7289 20.3766 9.20896 19.9308 7.90401 19.0902C8.12604 19.1173 8.35411 19.1279 8.58521 19.1279C9.92344 19.1279 11.1544 18.6733 12.1317 17.906C11.5361 17.8943 10.9591 17.6971 10.4809 17.3419C10.0028 16.9867 9.64741 16.4911 9.46427 15.9243C9.89195 16.0056 10.3325 15.9886 10.7527 15.8745C10.1063 15.7438 9.52499 15.3935 9.10737 14.8831C8.68976 14.3728 8.46152 13.7336 8.46135 13.0742V13.0394C8.84651 13.2524 9.28755 13.3823 9.75578 13.3974C9.1498 12.994 8.72082 12.3743 8.55658 11.6651C8.39233 10.9559 8.50523 10.2108 8.87219 9.58208C9.58957 10.4642 10.4842 11.1858 11.4981 11.7002C12.5121 12.2145 13.6228 12.5103 14.7583 12.5682C14.6139 11.9554 14.6761 11.3121 14.935 10.7383C15.194 10.1645 15.6353 9.69233 16.1903 9.39519C16.7453 9.09805 17.3829 8.9926 18.004 9.09523C18.6251 9.19786 19.1949 9.50283 19.6248 9.96271C20.264 9.83625 20.8769 9.6018 21.4373 9.26943C21.2243 9.93119 20.7783 10.4931 20.1822 10.8508C20.7484 10.7826 21.3012 10.6304 21.8225 10.3992C21.4396 10.973 20.9572 11.4738 20.3982 11.8779Z" fill="url(#paint0_linear_48_91)"/>
<defs>
<linearGradient id="paint0_linear_48_91" x1="14.5" y1="0" x2="14.5" y2="29" gradientUnits="userSpaceOnUse">
<stop stop-color="#6377FF"/>
<stop offset="1" stop-color="#6377FF" stop-opacity="0"/>
</linearGradient>
</defs>
</svg>
